# xmcd CD database file generated by OrangeCD 6.1
#
# Track frame offsets:
#	150
#	11530
#	26537
#	38437
#	53777
#	69885
#	81927
#	91825
#	106542
#	119935
#	133905
#	148057
#	160105
#	174050
#	187695
#	205265
#	229582
#	242405
#
# Disc length: 3416 seconds
#
# Revision: 1
# Processed by: cddbd v1.5.2PL0 Copyright (c) Steve Scherf et al.
# Submitted via: OrangeCD 6.1
#
DISCID=d80d5612
DTITLE=Vikingarna - Bæsta låtarna med Stefan Borsch and Christer Sjögren
DYEAR=2006
DGENRE=Danseband
TTITLE0=Himmelsfärgat blåa ögon
TTITLE1=Som en sommarvind
TTITLE2=Hallå (om jag ringer dig)
TTITLE3=Ord (Words)
TTITLE4=Fernando
TTITLE5=True Love
TTITLE6=Sail Along Silvery Moon
TTITLE7=Nyanser
TTITLE8=Borta bra men hemma bäst (Okie From Muskogee)
TTITLE9=Skomakar-Anton
TTITLE10=He'll Have To Go
TTITLE11=Så vi möts igen (The Song That I Sing)
TTITLE12=Charlie Brown
TTITLE13=Such A Night
TTITLE14=Don't Cry In The Sunshine
TTITLE15=Elvis-medley
TTITLE16=En fin gammal sång (Some Broken Hearts Never Mend)
TTITLE17=Precis som Ferdinand
EXTD=
EXTT0=
EXTT1=
EXTT2=
EXTT3=
EXTT4=
EXTT5=
EXTT6=
EXTT7=
EXTT8=
EXTT9=
EXTT10=
EXTT11=
EXTT12=
EXTT13=
EXTT14=
EXTT15=
EXTT16=
EXTT17=
PLAYORDER=
